<?xml version="1.0" encoding="utf-8"?>
<!-- Generator: Adobe Illustrator 19.0.0, SVG Export Plug-In . SVG Version: 6.00 Build 0)  -->
<svg version="1.1" id="Layer_1" xmlns="http://www.w3.org/2000/svg" xmlns:xlink="http://www.w3.org/1999/xlink" x="0px" y="0px"
	 viewBox="-405 283.3 30 30" style="enable-background:new -405 283.3 30 30;" xml:space="preserve">
<style type="text/css">
	.st0{clip-path:url(#SVGID_2_);}
	.st1{clip-path:url(#SVGID_4_);fill:#D6D6D6;}
</style>
<g>
	<defs>
		<path id="SVGID_1_" d="M-380.3,292.2c1-1,1-2.6,0-3.6c-1-1-2.6-1-3.6,0l-6,6l-6-6c-1-1-2.6-1-3.6,0c-1,1-1,2.6,0,3.6l6,6l-6,6
			c-1,1-1,2.6,0,3.6c1,1,2.6,1,3.6,0l6-6l6,6c1,1,2.6,1,3.6,0c1-1,1-2.6,0-3.6l-6-6L-380.3,292.2z"/>
	</defs>
	<use xlink:href="#SVGID_1_"  style="overflow:visible;fill-rule:evenodd;clip-rule:evenodd;fill:#D6D6D6;"/>
	<clipPath id="SVGID_2_">
		<use xlink:href="#SVGID_1_"  style="overflow:visible;"/>
	</clipPath>
	<g class="st0">
		<defs>
			<rect id="SVGID_3_" x="-1014.9" y="236.2" width="687.5" height="1222.7"/>
		</defs>
		<use xlink:href="#SVGID_3_"  style="overflow:visible;fill:#D6D6D6;"/>
		<clipPath id="SVGID_4_">
			<use xlink:href="#SVGID_3_"  style="overflow:visible;"/>
		</clipPath>
		<rect x="-409.6" y="278.7" class="st1" width="39.2" height="39.2"/>
	</g>
</g>
</svg>
